# AST/ASF file generated using VICON BodyLanguage
# -----------------------------------------------
:version 1.10
:name VICON
:units
  mass 1.0
  length 0.45
  angle deg
:documentation
   .ast/.asf automatically generated from VICON data using
   VICON BodyBuilder and BodyLanguage model FoxedUp or BRILLIANT.MOD
:root
   order TX TY TZ RX RY RZ
   axis XYZ
   position 0 0 0  
   orientation 0 0 0 
:bonedata
  begin
     id 1 
     name lhipjoint
     direction 0.700308 -0.549349 0.455834 
     length 2.59063 
     axis 0 0 0  XYZ
  end
  begin
     id 2 
     name lfemur
     direction 0.34202 -0.939693 0  
     length 6.31066  
     axis 0 0 20  XYZ
    dof rx ry rz
    limits (-160.0 20.0)
           (-70.0 70.0)
           (-60.0 70.0)
  end
  begin
     id 3 
     name ltibia
     direction 0.34202 -0.939693 0   
     length 7.36093   
     axis 0 0 20   XYZ
    dof rx
    limits (-10.0 170.0)
  end
  begin
     id 4 
     name lfoot
     direction 0.0905332 -0.248738 0.96433   
     length 2.0233   
     axis -90 7.62852e-016 20   XYZ
    dof rx rz
    limits (-45.0 90.0)
           (-70.0 20.0)
  end
  begin
     id 5 
     name ltoes
     direction 1.53573e-011 -4.21855e-011 1   
     length 1.01524   
     axis -90 7.62852e-016 20   XYZ
    dof rx
    limits (-90.0 20.0)
  end
  begin
     id 6 
     name rhipjoint
     direction -0.61416 -0.607328 0.503944   
     length 2.34332  
     axis 0 0 0  XYZ 
  end
  begin
     id 7 
     name rfemur
     direction -0.34202 -0.939693 0   
     length 6.58548   
     axis 0 0 -20   XYZ
    dof rx ry rz
    limits (-160.0 20.0)
           (-70.0 70.0)
           (-70.0 60.0)
  end
  begin
     id 8 
     name rtibia
     direction -0.34202 -0.939693 0   
     length 7.20707   
     axis 0 0 -20   XYZ
    dof rx
    limits (-10.0 170.0)
 end
 begin
     id 9 
     name rfoot
     direction -0.136772 -0.375778 0.916561   
     length 1.92184  
     axis -90 -7.62852e-016 -20   XYZ
    dof rx rz
    limits (-45.0 90.0)
           (-20.0 70.0)
  end
  begin
     id 10 
     name rtoes
     direction -1.53535e-011 -4.21828e-011 1   
     length 0.951089   
     axis -90 -7.62852e-016 -20   XYZ
    dof rx
    limits (-90.0 20.0)
  end
  begin
     id 11 
     name lowerback
     direction -0.0444974 0.988086 -0.147332   
     length 1.9609   
     axis 0 0 0   XYZ
    dof rx ry rz
    limits (-20.0 45.0)
           (-30.0 30.0)
           (-30.0 30.0)
  end
  begin
     id 12 
     name upperback
     direction 0.00613146 0.999513 0.0306081   
     length 1.94944   
     axis 0 0 0   XYZ
    dof rx ry rz
    limits (-20.0 45.0)
           (-30.0 30.0)
           (-30.0 30.0)
  end
  begin
     id 13 
     name thorax
     direction 0.0254621 0.994518 0.101418   
     length 2.0119   
     axis 0 0 0   XYZ
    dof rx ry rz
    limits (-20.0 45.0)
           (-30.0 30.0)
           (-30.0 30.0)
  end
  begin
     id 14 
     name lowerneck
     direction 0.0168698 0.977854 0.208608   
     length 1.6375   
     axis 0 0 0   XYZ
    dof rx ry rz
    limits (-20.0 45.0)
           (-30.0 30.0)
           (-30.0 30.0)
  end
  begin
     id 15 
     name upperneck
     direction -0.0283988 0.989338 -0.142843   
     length 1.6851   
     axis 0 0 0   XYZ
    dof rx ry rz
    limits (-20.0 45.0)
           (-30.0 30.0)
           (-30.0 30.0)
  end
  begin
     id 16
     name head
     direction -0.0129422 0.99741 -0.0707489  
     length 1.69029  
     axis 0 0 0   XYZ
    dof rx ry rz
    limits (-20.0 45.0)
           (-30.0 30.0)
           (-30.0 30.0)
  end
  begin
     id 17 
     name lclavicle
     direction 0.820295 0.564628 -0.0911715  
     length 3.16484  
     axis 0 0 0   XYZ
    dof ry rz
    limits (-20.0 10.0)
           (0.0 20.0)
  end
  begin
     id 18 
     name lhumerus
     direction 1 -4.48969e-011 1.00186e-027   
     length 5.17853   
     axis 180 -30 -90   XYZ
    dof rx ry rz
    limits (-60.0 90.0)
           (-90.0 90.0)
           (-90.0 90.0)
  end
  begin
     id 19
     name lradius
     direction 1 -4.48966e-011 -1.52922e-027   
     length 3.40399   
     axis 180 -30 -90   XYZ
    dof rx
    limits (-10.0 170.0)
  end
  begin
     id 20
     name lwrist
     direction 1 -4.48981e-011 -3.80893e-027   
     length 1.70199   
     axis 1.1049e-015 90 90   XYZ
    dof ry
    limits (-180.0 0.0)
 end
  begin
     id 21 
     name lhand
     direction 1 -4.48957e-011 -7.61786e-027   
     length 0.708964   
     axis 4.86085e-015 90 90   XYZ
    dof rx rz
    limits (-90.0 90.0)
           (-45.0 45.0)
  end
  begin
     id 22 
     name lfingers
     direction 1 -4.48929e-011 -1.52357e-026   
     length 0.571585   
     axis 9.7217e-015 90 90   XYZ
    dof rx
    limits (0.0 90.0)
  end
  begin
     id 23
     name lthumb
     direction 0.707107 -6.34905e-011 0.707107   
     length 0.820685   
     axis -90 45 2.85299e-015   XYZ
    dof rx rz
    limits (-45.0 45.0)
           (-45.0 45.0)
  end
  begin
     id 24 
     name rclavicle
     direction -0.858602 0.463947 -0.218075   
     length 3.35137  
     axis 0 0 0   XYZ 
    dof ry rz
    limits (-10.0 20.0)
           (-20.0 0.0)
  end
  begin
     id 25 
     name rhumerus
     direction -1 -4.48969e-011 -1.98511e-027  
     length 5.42351   
     axis 180 30 90   XYZ
    dof rx ry rz
    limits (-90.0 60.0)
           (-90.0 90.0)
           (-90.0 90.0)
  end
  begin
     id 26 
     name rradius
     direction -1 -4.48961e-011 -2.82624e-027   
     length 3.42066   
     axis 180 30 90   XYZ
    dof rx
    limits (-10.0 170.0)
  end
  begin
     id 27 
     name rwrist
     direction -1 -4.48966e-011 -3.80893e-027   
     length 1.71033   
     axis 1.1049e-015 -90 -90   XYZ
    dof ry
    limits (-180.0 0.0)
  end
  begin
     id 28
     name rhand
     direction -1 -4.48964e-011 -7.61786e-027   
     length 0.743608   
     axis 4.86085e-015 -90 -90   XYZ
    dof rx rz
    limits (-90.0 90.0)
           (-45.0 45.0)
  end
  begin
     id 29
     name rfingers
     direction -1 -4.48961e-011 -1.52357e-026   
     length 0.599516   
     axis 9.7217e-015 -90 -90   XYZ
    dof rx
    limits (0.0 90.0)
  end
  begin
     id 30
     name rthumb
     direction -0.707107 -6.34913e-011 0.707107   
     length 0.860789   
     axis -90 -45 -2.85299e-015   XYZ
    dof rx rz
    limits (-45.0 45.0)
           (-45.0 45.0)
  end
:hierarchy
  begin
    root lhipjoint rhipjoint lowerback
    lhipjoint lfemur
    lfemur ltibia
    ltibia lfoot
    lfoot ltoes
    rhipjoint rfemur
    rfemur rtibia
    rtibia rfoot
    rfoot rtoes
    lowerback upperback
    upperback thorax
    thorax lowerneck lclavicle rclavicle
    lowerneck upperneck
    upperneck head
    lclavicle lhumerus
    lhumerus lradius
    lradius lwrist
    lwrist lhand lthumb
    lhand lfingers
    rclavicle rhumerus
    rhumerus rradius
    rradius rwrist
    rwrist rhand rthumb
    rhand rfingers
  end

#!OML:ASF E:\mmandel\Project 1\Capture day 1\Session 2\Subject.ASF
:FULLY-SPECIFIED
:DEGREES
365
root -2.71051 2.82123 -1.70879 58.9299 86.9284 84.2179
lowerback 34.1913 0.867014 -5.19781
upperback 16.1289 1.65012 -0.778782
thorax 0.316048 1.46986 1.43911
lowerneck -6.91425 -1.84739 5.51673
upperneck 30.6109 -1.75253 -2.53846
head 10.8915 -0.0838464 -2.00416
rclavicle -3.8266e-015 6.06293e-015
rhumerus -52.9177 19.3105 -83.7406
rradius 80.3059
rwrist -75.1124
rhand -28.6122 10.2201
rfingers 7.12502
rthumb -1.97714 -19.7505
lclavicle -3.8266e-015 6.06293e-015
lhumerus -48.4626 -59.4072 79.8991
lradius 75.8527
lwrist 72.2183
lhand -30.9088 -14.9562
lfingers 7.12502
lthumb -4.19512 14.9822
rfemur -115.2 -24.4002 47.1095
rtibia 82.8007
rfoot 11.8628 -13.7146
rtoes 9.8764
lfemur -120.563 22.6707 -37.6113
ltibia 98.3058
lfoot 26.9732 -2.07685
ltoes 19.6533
366
root -2.68559 2.82785 -1.7087 62.1197 86.8002 86.7691
lowerback 34.6551 0.897409 -5.3298
upperback 15.5771 1.52809 -0.845183
thorax -0.43791 1.39738 1.44564
lowerneck -6.9437 -1.96992 5.31513
upperneck 30.9449 -1.90825 -2.39108
head 11.0234 -0.145203 -1.93681
rclavicle 5.2181e-015 -1.21259e-014
rhumerus -53.0095 19.1697 -83.9274
rradius 79.7236
rwrist -75.4572
rhand -28.5598 10.2336
rfingers 7.12502
rthumb -1.92653 -19.7375
lclavicle 5.2181e-015 -1.21259e-014
lhumerus -50.0949 -59.5599 81.4417
lradius 75.4921
lwrist 71.703
lhand -30.6996 -15.8049
lfingers 7.12502
lthumb -3.99304 14.1374
rfemur -116.059 -24.1656 47.204
rtibia 82.9919
rfoot 11.9253 -13.692
rtoes 9.8981
lfemur -121.361 22.4625 -38.1951
ltibia 98.4414
lfoot 26.9657 -2.19954
ltoes 18.7363
367
root -2.65858 2.83294 -1.70873 63.5646 86.8101 87.5365
lowerback 33.7968 0.822159 -5.20258
upperback 15.8281 1.53584 -0.946786
thorax 0.135379 1.39923 1.30322
lowerneck -7.02026 -1.95108 5.1303
upperneck 30.7312 -1.98772 -1.99152
head 10.9632 -0.168155 -1.76632
rclavicle 5.2181e-015 -1.36167e-014
rhumerus -52.1536 18.9192 -83.9585
rradius 78.8931
rwrist -75.4304
rhand -28.7462 10.3338
rfingers 7.12502
rthumb -2.10659 -19.6355
lclavicle 5.2181e-015 -1.36167e-014
lhumerus -49.9221 -59.8796 81.3882
lradius 75.1974
lwrist 71.238
lhand -30.7012 -16.4756
lfingers 7.12502
lthumb -3.99462 13.4667
rfemur -116.916 -23.8839 47.4621
rtibia 83.1883
rfoot 11.9012 -13.715
rtoes 10.1232
lfemur -122.261 22.2331 -38.5794
ltibia 98.6076
lfoot 26.9661 -2.43862
ltoes 16.8668
368
root -2.62601 2.83515 -1.70726 63.6587 86.8652 86.784
lowerback 32.5247 0.658539 -4.98433
upperback 16.2485 1.49357 -1.11001
thorax 1.05371 1.37966 1.07995
lowerneck -6.54219 -1.14588 6.51817
upperneck 29.714 -0.877271 -2.83728
head 10.5141 0.353842 -2.17879
rclavicle -7.60351e-015 -3.77691e-015
rhumerus -51.0094 19.02 -84.1275
rradius 77.9033
rwrist -75.0772
rhand -28.9653 10.6064
rfingers 7.12502
rthumb -2.31821 -19.3607
lclavicle -7.60351e-015 -3.77691e-015
lhumerus -49.1212 -60.1485 80.7635
lradius 74.833
lwrist 70.8021
lhand -31.0618 -17.157
lfingers 7.12502
lthumb -4.34278 12.7785
rfemur -117.917 -23.4321 47.8254
rtibia 83.3804
rfoot 11.8826 -13.7761
rtoes 10.3597
lfemur -123.418 22.004 -38.9167
ltibia 98.797
lfoot 27.1096 -2.63354
ltoes 15.7995
369
root -2.60322 2.84369 -1.70559 63.5221 87.026 86.1633
lowerback 32.458 0.631314 -4.84447
upperback 16.1918 1.48718 -1.07821
thorax 1.01345 1.37816 1.04155
lowerneck -6.7943 -1.62943 5.76975
upperneck 29.6756 -1.59029 -2.39888
head 10.5217 -0.0108123 -1.9677
rclavicle -7.65321e-015 -2.22639e-014
rhumerus -50.7002 19.4348 -84.4397
rradius 77.0055
rwrist -74.5427
rhand -29.3561 11.1633
rfingers 7.12502
rthumb -2.69566 -18.7994
lclavicle -7.65321e-015 -2.22639e-014
lhumerus -49.597 -60.4838 81.5333
lradius 74.3205
lwrist 70.2388
lhand -31.6517 -18.3724
lfingers 7.12502
lthumb -4.91238 11.5507
rfemur -118.482 -23.2405 48.1559
rtibia 83.5385
rfoot 11.8178 -13.7937
rtoes 10.6192
lfemur -124.06 21.8735 -39.0395
ltibia 98.927
lfoot 27.0807 -2.84242
ltoes 15.166
370
root -2.5785 2.85112 -1.70339 63.0748 87.2071 85.1838
lowerback 31.1956 0.447481 -4.49354
upperback 16.7297 1.47552 -1.25473
thorax 2.0286 1.38953 0.792354
lowerneck -7.25787 -1.92165 5.23857
upperneck 29.7748 -2.15005 -1.70491
head 10.6442 -0.249836 -1.69297
rclavicle 7.55382e-015 -4.17448e-015
rhumerus -49.7601 19.8247 -84.8756
rradius 75.8967
rwrist -73.852
rhand -30.0474 11.9997
rfingers 7.12502
rthumb -3.36319 -17.9535
lclavicle 7.55382e-015 -4.17448e-015
lhumerus -48.8611 -60.7337 81.0693
lradius 73.7404
lwrist 69.7502
lhand -32.1691 -20.0776
lfingers 7.12502
lthumb -5.41201 9.83327
rfemur -119.112 -23.0058 48.5628
rtibia 83.7185
rfoot 11.7749 -13.8041
rtoes 10.95
lfemur -124.777 21.723 -39.1447
ltibia 99.0633
lfoot 27.0079 -3.03716
ltoes 14.8267
